<?xml version="1.0" encoding="UTF-8" standalone="no"?>
<svg width="147px" height="16px" viewBox="0 0 147 16" version="1.1" xmlns="http://www.w3.org/2000/svg" xmlns:xlink="http://www.w3.org/1999/xlink">
    <!-- Generator: Sketch 40.3 (33839) - http://www.bohemiancoding.com/sketch -->
    <title>curl</title>
    <desc>Created with Sketch.</desc>
    <defs>
        <polygon id="path-1" points="10.0649702 0.0617283103 0.0560302074 0.0617283103 0.0560302074 11.1780298 10.0649702 11.1780298 10.0649702 0.0617283103"></polygon>
    </defs>
    <g id="1.0" stroke="none" stroke-width="1" fill="none" fill-rule="evenodd">
        <g id="Homepage" transform="translate(-634.000000, -437.000000)">
            <g id="curl" transform="translate(634.000000, 437.000000)">
                <path d="M69.1546602,8.39082593 C68.0467236,5.92908954 65.4628562,4.77075922 62.9203634,4.53494001 C56.5441501,3.94340074 50.2249859,5.43796545 43.9841934,6.53214953 C37.7733375,7.62121329 31.411104,8.13296089 25.1287957,7.36747295 C22.0254153,6.98928038 18.9529599,6.27997374 16.0437438,5.11666533 C14.8770637,4.65028945 13.7437092,4.11265578 12.6842078,3.43463999 C12.06613,3.03909522 10.9412481,2.10805024 10.3689225,3.07294622 C8.62327983,6.01812623 20.3654873,8.1905645 21.4388274,8.29083745 C25.1004124,8.63304554 28.7814844,8.32198606 32.4395392,8.09000709 C32.6995075,8.07350828 32.9594758,8.05700947 33.2193029,8.04051066 C33.8099859,8.02770986 34.4010925,8.00879312 34.9921991,7.98304928 C35.4309398,7.96384808 35.869398,7.94023771 36.307715,7.91634288 C33.220715,8.35541038 30.1184643,8.70074756 26.9523865,8.85265041 C19.0564671,9.2318386 10.2874441,8.37162473 3.43549308,4.21179088 C2.76206081,3.80301861 1.91409251,3.10167691 1.07106657,3.19924747 C-0.41051268,3.37077821 -0.148002594,4.41660371 0.616934006,5.31351321 C2.90454207,7.99585008 6.45146427,8.72976271 9.79123084,8.99658831 C18.1974844,9.66820371 26.5752135,9.82238225 34.9581674,8.79106433 C39.7029772,8.20734777 44.4311242,7.44456223 49.2048821,7.13336051 C52.0176516,6.95002459 58.9150723,5.91557758 59.6178764,10.0970306 C59.7723605,11.0162704 59.3872798,12.1047652 58.5462308,12.5667319 C57.9538533,12.8920145 57.2204066,12.7884702 56.6284527,13.1146062 C55.5514412,13.7075678 56.1068216,14.9509523 57.0731242,15.2900313 C59.6927179,16.2092711 61.5684153,12.7304399 60.9345219,10.5584283 C60.4488994,8.8941819 59.2760061,7.83811576 57.8442741,7.19579998 C57.3048504,6.92641422 56.7086602,6.74407391 56.0836631,6.62360414 C54.9753029,6.3771176 53.8206256,6.29988609 52.7695968,6.32534547 C51.7887496,6.3492403 50.8071963,6.39077179 49.8255017,6.44097937 C52.7710089,5.94587281 55.7136919,5.33328334 58.7050925,5.20811994 C61.2539398,5.10158883 64.4188879,5.00700513 66.5288533,6.72487271 C67.2471905,7.30986935 67.9714585,8.40376896 67.6969455,9.38061236 C67.4486977,10.2638677 66.3719686,10.5774873 66.1813346,11.4999984 C66.0166833,12.2970617 66.6361732,12.9392352 67.3936256,13.0440596 C69.7975911,13.3768804 69.7999916,9.82480018 69.1546602,8.39082593" id="Fill-1" fill="#000000"></path>
                <path d="M79.4917115,13.044088 C80.249164,12.9392637 80.8685127,12.2970901 80.7038614,11.5000269 C80.5133686,10.5775158 79.4366395,10.2638961 79.1883916,9.38064081 C78.9137375,8.40365518 79.6381467,7.30975556 80.3564839,6.72490116 C82.4663081,5.00703357 85.6313974,5.10147504 88.1801035,5.20814839 C91.171504,5.33316955 94.1143282,5.94575903 97.0598354,6.44100782 C96.0781409,6.39080023 95.0965876,6.34926874 94.1155991,6.32537391 C93.0647115,6.29977231 91.9098931,6.37714604 90.8015329,6.62349036 C90.1766769,6.74410236 89.5804867,6.92644267 89.0410631,7.19582843 C87.6093311,7.83800198 86.4364378,8.89421034 85.9506741,10.5584568 C85.3167807,12.7303261 87.1926193,16.2092996 89.812213,15.2900598 C90.7783744,14.9509808 91.333896,13.7075962 90.2568844,13.1144924 C89.6647893,12.7884987 88.9313427,12.8920429 88.3391063,12.5667603 C87.4980573,12.1047936 87.1129767,11.0161566 87.2674608,10.0969168 C87.9702648,5.9154638 94.8675444,6.95005303 97.6803138,7.13338896 C102.454213,7.44459067 107.18236,8.20737622 111.927029,8.79109278 C120.309982,9.8224107 128.687853,9.66823215 137.094106,8.99661676 C140.433732,8.72979116 143.980795,7.99587853 146.268403,5.31354166 C147.03334,4.41648992 147.29585,3.37066443 145.814271,3.19927591 C144.971103,3.10156313 144.123276,3.80304706 143.449844,4.21181933 C136.597893,8.37165317 127.82887,9.23186705 119.932951,8.85267885 C116.766873,8.70063378 113.664622,8.35543883 110.577481,7.91637133 C111.015939,7.94026616 111.454397,7.96387653 111.892997,7.9829355 C112.484245,8.00867933 113.07521,8.0277383 113.665893,8.0405391 C113.925861,8.05703792 114.18583,8.07353673 114.445657,8.09003554 C118.103853,8.32201451 121.784925,8.63307399 125.44651,8.29086589 C126.51985,8.19045072 138.262057,6.01801244 136.516415,3.07297467 C135.944089,2.10807869 134.819207,3.03898143 134.200988,3.43466843 C133.141487,4.11268423 132.008273,4.65017567 130.841593,5.11669377 C127.932236,6.28000218 124.859922,6.98930883 121.756541,7.3675014 C115.474092,8.13298934 109.112,7.62124173 102.901003,6.53217797 C96.6603513,5.43785166 90.341187,3.94342918 83.9649738,4.53496845 C81.4223398,4.77078767 78.8386135,5.92911799 77.7306769,8.39085438 C77.0852043,9.82468639 77.0876049,13.3769089 79.4917115,13.044088" id="Fill-3" fill="#000000"></path>
                <g id="Group-7" transform="translate(68.487032, 0.080503)">
                    <mask id="mask-2" fill="white">
                        <use xlink:href="#path-1"></use>
                    </mask>
                    <g id="Clip-6"></g>
                    <path d="M9.77216744,3.44591892 C8.94114438,2.82963143 6.44426254,5.18497894 6.29980432,5.41695791 C6.69095706,3.29814077 5.06054207,-0.106161315 5.06054207,0.0680718186 C5.06054207,-0.106161315 3.42998588,3.29814077 3.82113862,5.41695791 C3.67682161,5.18497894 1.17979856,2.82963143 0.348775504,3.44591892 C-0.571351297,4.12834388 0.933386455,4.90279238 1.35857089,5.2154164 C1.60117032,5.39363201 1.87624813,5.58649742 2.15796282,5.79230586 C3.25573228,6.5943472 4.06246715,7.73745879 4.45234899,9.04570072 C4.77543833,10.1297864 5.06054207,11.1780298 5.06054207,11.1780298 C5.06054207,11.1780298 5.34550461,10.1297864 5.66859395,9.04570072 C6.05847579,7.73745879 6.86535187,6.5943472 7.96312133,5.79230586 C8.24469481,5.58649742 8.51991383,5.39363201 8.76237205,5.2154164 C9.18755648,4.90279238 10.6924354,4.12834388 9.77216744,3.44591892" id="Fill-5" fill="#000000" mask="url(#mask-2)"></path>
                </g>
                <path d="M72.9191876,10.1605083 C72.4887784,8.43424909 70.8438187,5.5768257 68.7539052,6.14361675 C68.6111415,6.18230362 68.5471732,6.41115351 68.6768043,6.50417267 C69.9037813,7.38472559 72.9191876,10.1605083 72.9191876,10.1605083" id="Fill-8" fill="#000000"></path>
                <path d="M78.4182867,6.50414422 C78.5479179,6.41112506 78.4838084,6.18227517 78.3411859,6.14358831 C76.2512723,5.57679725 74.6063127,8.43422065 74.1759035,10.1604799 C74.1759035,10.1604799 77.1913098,7.38483937 78.4182867,6.50414422" id="Fill-10" fill="#000000"></path>
            </g>
        </g>
    </g>
</svg>